# File exported by Houdini 19.0.531 (www.sidefx.com)
# 32 points
# 96 vertices
# 22 primitives
# Bounds: [-0.5, -0.5, -0.5] to [0.5, 0.5, 0.5]
g 
v -0.5 0.5 0.5
v -0.5 0.5 -0.5
v 0.5 0.5 -0.5
v -0.5 0.00915762782 -0.5
v 0.5 0.5 -0.406710982
v -0.158344507 0.5 0.5
v 0.5 0.386077136 -0.5
v -0.5 -0.0746250153 0.5
v -0.5 -0.144032538 0.443163663
v 0.286975622 0.0277948063 -0.5
v -0.5 -0.5 0.5
v -0.5 -0.5 -0.5
v 0.5 -0.5 -0.5
v -0.5 0.00915762782 -0.5
v -0.336289406 -0.5 0.5
v -0.5 -0.232017219 0.5
v 0.5 -0.320911348 -0.5
v 0.286975563 0.0277948063 -0.5
v 0.5 -0.5 -0.384312391
v -0.5 -0.144032538 0.443163693
v 0.5 -0.5 0.5
v 0.5 0.5 0.5
v -0.5 -0.0746249557 0.5
v -0.158344507 0.5 0.5
v 0.5 0.386077225 -0.5
v 0.5 0.5 -0.406711042
v -0.336289406 -0.5 0.5
v -0.5 -0.232017115 0.5
v 0.5 -0.5 -0.384312391
v 0.286975622 0.0277948454 -0.5
v 0.5 -0.320911288 -0.5
v -0.5 -0.144032449 0.443163693
vn -0 1 -0
vn 0 1 0
vn 0 1 0
vn 0 1 0
vn -0 1 -0
vn 0 0 -1
vn -0 -0 -1
vn -0 0 -1
vn 0 0 -1
vn 0 0 -1
vn 1 0 0
vn 1 0 0
vn 1 0 0
vn -1 0 0
vn -1 0 0
vn -1 -0 0
vn -1 -0 -0
vn -1 0 0
vn 0 0 1
vn 0 0 1
vn -0 -0 1
vn 0.0233693216 -0.986795425 -0.16027692
vn 0.0233693179 -0.986795425 -0.16027692
vn 0.0233693197 -0.986795485 -0.16027692
vn 0.729187846 -0.433554202 0.529448628
vn 0.729187906 -0.433554113 0.529448569
vn 0.729187846 -0.433554113 0.529448628
vn 0.729187906 -0.433554173 0.529448628
vn 0.729187965 -0.433554232 0.529448569
vn 0.729187965 -0.433554173 0.529448569
vn 0 -0 -1
vn 0 0 -1
vn 0 0 -1
vn 0 0 -1
vn -0 -0 -1
vn -0 -1 -0
vn 0 -1 0
vn 0 -1 0
vn -0 -1 -0
vn -0 -1 0
vn 0 0 1
vn 0 0 1
vn -0 -0 1
vn 1 -0 -0
vn 1 0 0
vn 1 0 0
vn -1 -0 -0
vn -1 0 0
vn -1 0 0
vn -1 0 0
vn -1 0 -0
vn -0.0233693179 0.986795425 0.16027689
vn -0.0233693216 0.986795425 0.16027689
vn -0.0233693197 0.986795485 0.160276905
vn 0.66408366 0.405688405 0.628020525
vn 0.664083779 0.405688524 0.628020406
vn 0.664083779 0.405688375 0.628020465
vn 0.6640836 0.405688465 0.628020525
vn 0.664083719 0.405688554 0.628020346
vn 0.664083838 0.405688345 0.628020406
vn 0 0 1
vn -0 -0 1
vn 0 0 1
vn 0 0 1
vn 0 0 1
vn 0 0 1
vn 0 1 0
vn 0 1 0
vn -0 1 -0
vn 1 0 0
vn 1 0 0
vn 1 0 0
vn 1 0 0
vn 1 -0 -0
vn 1 -0 -0
vn -1 0 0
vn -1 0 0
vn -1 0 0
vn -0.729187846 0.433554143 -0.529448688
vn -0.729187906 0.433554143 -0.529448569
vn -0.729187906 0.433554232 -0.529448509
vn -0.729188025 0.433554173 -0.52944845
vn -0.729187906 0.433554083 -0.529448569
vn -0.729187906 0.433554143 -0.529448569
vn 0 -1 0
vn 0 -1 -0
vn 0 -1 0
vn 0 0 -1
vn 0 0 -1
vn 0 0 -1
vn -0.664083838 -0.405688405 -0.628020465
vn -0.664083838 -0.405688435 -0.628020346
vn -0.664083779 -0.405688465 -0.628020465
vn -0.664083838 -0.405688465 -0.628020465
vn -0.6640836 -0.405688316 -0.628020585
vn -0.664083779 -0.405688196 -0.628020406
g outside
f 2//1 1//2 6//3 5//4 3//5
f 4//6 2//7 3//8 7//9 10//10
f 7//11 3//12 5//13
f 9//14 8//15 1//16 2//17 4//18
f 8//19 6//20 1//21
f 12//31 14//32 18//33 17//34 13//35
f 13//36 19//37 15//38 11//39 12//40
f 15//41 16//42 11//43
f 13//44 17//45 19//46
f 11//47 16//48 20//49 14//50 12//51
f 21//61 22//62 24//63 23//64 28//65 27//66
f 26//67 24//68 22//69
f 29//70 31//71 25//72 26//73 22//74 21//75
f 28//76 23//77 32//78
f 29//85 21//86 27//87
f 30//88 25//89 31//90
g inside
f 10//22 9//23 4//24
f 5//25 6//26 8//27 9//28 10//29 7//30
f 20//52 18//53 14//54
f 17//55 18//56 20//57 16//58 15//59 19//60
f 23//79 24//80 26//81 25//82 30//83 32//84
f 27//91 28//92 32//93 30//94 31//95 29//96
